# xmcd
#
# Track frame offsets: 
#        150
#        22958
#        51879
#        92436
#        132670
#        187440
#        226571
#        258577
#
# Disc length: 3805 seconds
#
# Revision: 0
# Processed by: cddbd v1.5.2PL0 Copyright (c) Steve Scherf et al.
# Submitted via: ExactAudioCopy v0.95a5
#
DISCID=680edb08
DTITLE=龚一 - 平沙落雁
DYEAR=1900
DGENRE=Folk
TTITLE0=古风操
TTITLE1=泛沧浪
TTITLE2=忆故人
TTITLE3=秋塞吟
TTITLE4=大胡茄
TTITLE5=平沙落雁
TTITLE6=阳关三叠
TTITLE7=关山月
EXTD=
EXTT0=
EXTT1=
EXTT2=
EXTT3=
EXTT4=
EXTT5=
EXTT6=
EXTT7=
PLAYORDER=
